#!OML:ASF X:\für Bonn\!DataBase\2005_08_10_Bjorn_Final\c3d\bjorn.ASF
:FULLY-SPECIFIED
:DEGREES
259
root 3.72454 17.6238 8.7612 -467.249 441.076 -467.048
lowerback 0.780496 5.84375 4.80624
upperback 9.21016 8.37981 -3.00504
thorax 10.5898 4.86643 -5.08786
lowerneck -10.8324 -3.05388 -2.35202
upperneck 2.96842 -4.17606 8.12315
head 3.17239 -1.74856 2.87911
rclavicle 5.80451e-014 -2.06736e-014
rhumerus -46.4849 3.6934 -106.514
rradius 89.7718
rwrist 6.11851
rhand -22.7346 24.7667
rfingers 7.12502
rthumb 3.69943 -5.18098
lclavicle 5.80451e-014 -2.06736e-014
lhumerus -35.9714 -22.4908 94.4156
lradius 95.9725
lwrist -28.4537
lhand -59.2949 -39.3701
lfingers 7.12502
lthumb -31.4804 -12.0613
rfemur 3.11743 -8.87964 5.45097
rtibia 73.9849
rfoot -5.60043 12.9561
rtoes -35.1978
lfemur -21.3792 3.43737 -31.3618
ltibia 48.5901
lfoot -23.2263 1.53471
ltoes 22.0792
260
root 3.96517 17.5641 8.78552 -473.194 441.346 -473.023
lowerback 0.848677 5.73601 4.36278
upperback 9.38884 8.29917 -3.18518
thorax 10.6989 4.81676 -5.04569
lowerneck -11.4818 -3.04941 -2.74161
upperneck 3.19235 -4.1511 8.81801
head 3.06685 -1.67411 2.87851
rclavicle -3.10104e-014 9.54166e-015
rhumerus -47.5358 1.71479 -106.133
rradius 89.1148
rwrist 5.3833
rhand -22.3865 23.9273
rfingers 7.12502
rthumb 4.03557 -6.0142
lclavicle -3.10104e-014 9.54166e-015
lhumerus -34.027 -22.5921 94.5495
lradius 96.1444
lwrist -29.4177
lhand -59.8081 -39.47
lfingers 7.12502
lthumb -31.9691 -12.2579
rfemur 1.04207 -8.86861 4.46308
rtibia 76.3836
rfoot -6.25462 12.464
rtoes -35.7738
lfemur -20.6094 2.93015 -31.9527
ltibia 49.0357
lfoot -24.19 1.50991
ltoes 21.3845
261
root 4.20726 17.5173 8.80492 -478.975 441.464 -478.891
lowerback 0.848169 5.61428 3.97481
upperback 9.54299 8.18694 -3.31603
thorax 10.8183 4.74986 -4.97843
lowerneck -11.964 -3.04201 -3.30771
upperneck 3.12561 -4.0755 9.36619
head 3.14608 -1.60522 3.13989
rclavicle -2.70347e-014 3.18055e-014
rhumerus -48.5856 0.115697 -105.681
rradius 88.4761
rwrist 4.34105
rhand -22.5113 23.0546
rfingers 7.12502
rthumb 3.91499 -6.88914
lclavicle -2.70347e-014 3.18055e-014
lhumerus -32.1467 -22.6535 94.7712
lradius 96.4252
lwrist -30.0515
lhand -59.9671 -39.607
lfingers 7.12502
lthumb -32.1206 -12.4253
rfemur -1.0989 -8.83823 3.65308
rtibia 78.4965
rfoot -7.08532 11.9333
rtoes -36.8657
lfemur -19.776 2.42365 -32.4542
ltibia 49.2622
lfoot -25.0766 1.51553
ltoes 20.7109
262
root 4.44918 17.4827 8.8205 -484.332 441.367 -484.403
lowerback 0.813217 5.47793 3.75522
upperback 9.61846 8.03723 -3.44244
thorax 10.8911 4.67308 -5.00374
lowerneck -12.2234 -3.00036 -3.70984
upperneck 2.99911 -3.96527 9.79517
head 3.16205 -1.529 3.3435
rclavicle 5.24792e-014 1.59028e-015
rhumerus -49.6497 -1.32269 -105.205
rradius 87.7959
rwrist 3.32081
rhand -22.8299 22.7378
rfingers 7.12502
rthumb 3.60733 -7.21142
lclavicle 5.24792e-014 1.59028e-015
lhumerus -30.4108 -22.786 95.0263
lradius 96.8121
lwrist -30.3374
lhand -59.8143 -39.7151
lfingers 7.12502
lthumb -31.975 -12.5041
rfemur -3.33106 -8.74035 3.13977
rtibia 80.3305
rfoot -8.16938 11.4675
rtoes -38.4344
lfemur -18.9119 1.96259 -32.7854
ltibia 49.2853
lfoot -25.8788 1.55032
ltoes 19.6561
263
root 4.69268 17.4627 8.83204 -488.952 441.055 -489.227
lowerback 0.712198 5.29171 3.64407
upperback 9.65737 7.79908 -3.4983
thorax 10.9542 4.55353 -5.01821
lowerneck -12.3638 -2.91448 -4.04358
upperneck 2.85814 -3.79751 10.0786
head 3.14436 -1.43446 3.49649
rclavicle -3.18055e-014 3.65764e-014
rhumerus -50.7011 -2.4392 -104.637
rradius 87.1741
rwrist 2.48817
rhand -22.9443 22.9346
rfingers 7.12502
rthumb 3.49694 -7.0165
lclavicle -3.18055e-014 3.65764e-014
lhumerus -28.7983 -22.8662 95.3547
lradius 97.2923
lwrist -30.5289
lhand -59.5127 -39.4439
lfingers 7.12502
lthumb -31.6878 -12.1758
rfemur -5.58878 -8.53468 2.97247
rtibia 81.8582
rfoot -9.29459 10.9904
rtoes -39.9566
lfemur -17.9949 1.52241 -32.9241
ltibia 49.1116
lfoot -26.587 1.63351
ltoes 18.3525
